<?xml version="1.0" encoding="UTF-8"?>
<svg version="1.1" xmlns="http://www.w3.org/2000/svg" width="1508" height="992">
    <path d="M0,0 L21,0 L31,4 L39,10 L46,18 L58,35 L71,53 L84,71 L97,89 L107,103 L120,121 L130,135 L143,153 L153,167 L166,185 L176,199 L189,217 L199,231 L203,236 L217,216 L233,192 L241,181 L257,157 L265,146 L282,121 L293,105 L304,89 L317,70 L328,54 L341,35 L350,25 L358,17 L369,10 L376,8 L390,8 L403,13 L417,21 L425,29 L430,39 L448,110 L483,251 L522,407 L540,480 L586,664 L604,737 L624,817 L624,832 L619,851 L614,861 L606,869 L596,874 L593,875 L517,875 L129,870 L116,870 L-118,878 L-151,878 L-195,867 L-205,862 L-213,854 L-218,844 L-219,841 L-219,826 L-202,755 L-177,651 L-151,543 L-125,435 L-101,335 L-74,223 L-49,119 L-27,27 L-23,18 L-19,12 L-10,4 Z " fill="#000000" transform="translate(855,42)"/>
    <path d="M0,0 L79,0 L180,17 L206,25 L272,46 L309,64 L337,77 L348,83 L368,97 L384,108 L407,124 L423,135 L433,144 L445,156 L452,164 L459,171 L466,179 L474,187 L481,195 L488,202 L495,210 L503,218 L512,232 L526,257 L540,281 L549,297 L560,330 L576,382 L577,393 L579,449 L579,482 L561,561 L554,577 L535,616 L524,639 L503,670 L495,681 L481,695 L473,702 L457,717 L445,728 L432,740 L419,752 L406,764 L396,772 L371,786 L343,802 L318,816 L302,825 L244,847 L209,860 L97,887 L87,888 L40,890 L11,890 L-2,885 L-16,877 L-24,869 L-29,859 L-30,856 L-30,812 L-25,607 L-26,533 L-33,99 L-33,37 L-30,28 L-20,13 L-12,5 Z " fill="#000000" transform="translate(88,36)"/>
</svg>
